<svg xmlns="http://www.w3.org/2000/svg" data-name="Layer 12" viewBox="0 0 24 24"><defs><linearGradient id="a" x1="3.466" x2="20.534" y1="3.466" y2="20.534" gradientUnits="userSpaceOnUse"><stop offset="0" stop-color="#fee140"/><stop offset="1" stop-color="#fa709a"/></linearGradient></defs><path fill="url(#a)" d="M11,8a1,1,0,0,1-1,1H9v1a1,1,0,0,1-2,0V9H6A1,1,0,0,1,6,7H7V6A1,1,0,0,1,9,6V7h1A1,1,0,0,1,11,8Zm7-1H14a1,1,0,0,0,0,2h4A1,1,0,0,0,18,7Zm0,6H14a1,1,0,0,0,0,2h4A1,1,0,0,0,18,13Zm0,3H14a1,1,0,0,0,0,2h4A1,1,0,0,0,18,16Zm-7.793-2.707a1,1,0,0,0-1.414,0L8,14.086l-0.793-.793a1,1,0,0,0-1.414,1.414L6.586,15.5l-0.793.793a1,1,0,1,0,1.414,1.414L8,16.914l0.793,0.793a1,1,0,0,0,1.414-1.414L9.414,15.5l0.793-.793A1,1,0,0,0,10.207,13.293ZM22,7V17a5.006,5.006,0,0,1-5,5H7a5.006,5.006,0,0,1-5-5V7A5.006,5.006,0,0,1,7,2H17A5.006,5.006,0,0,1,22,7ZM20,7a3,3,0,0,0-3-3H7A3,3,0,0,0,4,7V17a3,3,0,0,0,3,3H17a3,3,0,0,0,3-3V7Z"/></svg>